<?xml version="1.0" standalone="no"?>
<!DOCTYPE svg PUBLIC "-//W3C//DTD SVG 20010904//EN"
 "http://www.w3.org/TR/2001/REC-SVG-20010904/DTD/svg10.dtd">
<svg version="1.0" xmlns="http://www.w3.org/2000/svg"
 width="300.000000pt" height="99.000000pt" viewBox="0 0 300.000000 99.000000"
 preserveAspectRatio="xMidYMid meet">

<g transform="translate(0.000000,99.000000) scale(0.100000,-0.100000)"
fill="#000000" stroke="none">
<path d="M420 937 c-172 -48 -275 -231 -226 -399 18 -62 293 -491 317 -495 13
-2 244 342 299 445 33 65 35 194 3 264 -30 65 -92 129 -156 162 -65 32 -168
43 -237 23z m63 -267 l26 -20 33 20 c42 25 59 25 92 -1 18 -15 26 -30 26 -53
0 -27 -11 -44 -69 -99 -38 -37 -72 -67 -77 -67 -11 0 -127 112 -142 137 -17
31 -5 71 27 88 36 20 54 18 84 -5z"/>
<path d="M1045 778 c-2 -13 -8 -62 -13 -110 -7 -79 -6 -88 9 -88 22 0 29 20
29 79 0 26 3 51 7 55 4 4 19 -24 33 -61 22 -57 30 -68 51 -71 23 -3 28 3 49
60 12 35 26 67 30 71 4 5 10 -24 14 -62 6 -63 10 -71 28 -71 18 0 20 4 15 38
-3 20 -9 70 -13 110 -6 70 -7 72 -33 72 -25 0 -29 -6 -56 -90 -16 -50 -32 -87
-36 -83 -3 5 -19 45 -34 91 -23 72 -29 82 -51 82 -16 0 -25 -7 -29 -22z"/>
<path d="M1340 690 l0 -110 86 0 c76 0 85 2 82 18 -3 14 -16 18 -66 20 -58 3
-62 4 -62 27 0 22 4 25 40 25 33 0 40 3 40 20 0 17 -7 20 -40 20 -36 0 -40 3
-40 25 0 24 3 25 60 25 53 0 60 2 60 20 0 18 -7 20 -80 20 l-80 0 0 -110z"/>
<path d="M1567 763 c-3 -21 -9 -71 -13 -110 -6 -70 -6 -73 15 -73 18 0 21 6
22 43 1 23 4 56 8 72 6 28 8 26 35 -42 24 -63 31 -73 52 -73 14 0 27 6 29 13
2 6 14 39 27 72 21 58 22 59 29 30 4 -16 7 -49 8 -72 1 -37 4 -43 22 -43 21 0
21 3 15 73 -14 142 -16 148 -44 145 -22 -3 -29 -14 -55 -91 -16 -49 -31 -86
-33 -84 -3 2 -17 42 -33 88 -24 73 -31 84 -53 87 -22 3 -26 -1 -31 -35z"/>
<path d="M1914 781 c-42 -26 -60 -78 -44 -126 17 -50 53 -75 110 -75 57 0 93
25 110 75 34 102 -82 183 -176 126z m124 -47 c12 -14 22 -35 22 -48 0 -26 -30
-62 -60 -71 -45 -14 -100 31 -100 81 0 9 14 29 30 46 36 35 71 33 108 -8z"/>
<path d="M2140 690 c0 -89 3 -110 14 -110 10 0 16 13 18 38 2 29 8 38 25 40
16 2 27 -7 44 -37 13 -25 30 -41 41 -41 23 0 23 5 -3 46 l-21 34 23 19 c31 25
30 78 0 103 -17 13 -40 18 -82 18 l-59 0 0 -110z m128 43 c4 -26 -27 -46 -66
-41 -22 2 -28 9 -30 36 l-3 33 48 -3 c41 -3 48 -6 51 -25z"/>
<path d="M2350 690 c0 -103 1 -110 20 -110 19 0 20 7 20 110 0 103 -1 110 -20
110 -19 0 -20 -7 -20 -110z"/>
<path d="M2495 788 c-18 -47 -65 -193 -65 -200 0 -4 9 -8 19 -8 12 0 23 11 30
30 9 27 14 30 51 30 37 0 42 -3 51 -30 7 -20 18 -30 31 -30 12 0 18 5 16 13
-3 6 -20 56 -39 109 -32 92 -36 98 -62 98 -15 0 -30 -6 -32 -12z m53 -85 c11
-32 10 -33 -19 -33 -27 0 -30 3 -24 23 4 12 9 30 12 41 6 22 17 12 31 -31z"/>
<path d="M2670 690 l0 -110 75 0 c68 0 75 2 75 20 0 18 -7 20 -55 20 l-55 0 0
90 c0 83 -1 90 -20 90 -19 0 -20 -7 -20 -110z"/>
<path d="M1863 369 c-86 -25 -101 -156 -23 -202 76 -45 180 10 180 95 0 36
-37 88 -75 104 -39 16 -38 16 -82 3z m100 -60 c41 -51 5 -119 -63 -119 -30 0
-43 6 -59 26 -29 36 -26 60 9 96 26 25 36 29 63 24 18 -3 40 -16 50 -27z"/>
<path d="M2323 373 c-13 -2 -36 -18 -53 -34 -24 -25 -30 -39 -30 -76 0 -38 5
-50 34 -79 27 -27 42 -34 73 -34 136 0 167 171 40 219 -16 6 -31 10 -35 10 -4
-1 -17 -4 -29 -6z m82 -58 c52 -51 20 -125 -53 -125 -43 0 -66 19 -77 62 -6
22 -1 33 23 58 37 37 74 39 107 5z"/>
<path d="M1360 260 c0 -103 1 -110 20 -110 17 0 20 7 20 40 0 38 2 40 31 40
32 0 69 15 81 34 14 21 8 73 -10 89 -13 12 -37 17 -80 17 l-62 0 0 -110z m126
55 c10 -24 -15 -45 -52 -45 -31 0 -34 3 -34 30 0 28 2 30 40 30 27 0 43 -5 46
-15z"/>
<path d="M1560 260 c0 -103 1 -110 20 -110 17 0 20 7 20 45 l0 45 50 0 50 0 0
-45 c0 -38 3 -45 20 -45 19 0 20 7 20 110 0 103 -1 110 -20 110 -17 0 -20 -7
-20 -45 l0 -45 -50 0 -50 0 0 45 c0 38 -3 45 -20 45 -19 0 -20 -7 -20 -110z"/>
<path d="M2042 353 c2 -12 14 -19 36 -21 l32 -3 0 -90 c0 -82 1 -89 20 -89 19
0 20 7 20 89 l0 90 32 3 c22 2 34 9 36 21 3 15 -6 17 -88 17 -82 0 -91 -2 -88
-17z"/>
</g>
</svg>
